{
    "asset" : {
        "generator" : "Khronos glTF Blender I/O v1.4.40",
        "version" : "2.0"
    },
    "scene" : 0,
    "scenes" : [
        {
            "name" : "Scene",
            "nodes" : [
                0
            ]
        }
    ],
    "nodes" : [
        {
            "mesh" : 0,
            "name" : "Cube",
            "translation" : [
                0,
                0.10000000149011612,
                0
            ]
        }
    ],
    "materials" : [
        {
            "doubleSided" : true,
            "name" : "Body",
            "pbrMetallicRoughness" : {
                "baseColorFactor" : [
                    0.8000000715255737,
                    0.34365570545196533,
                    0.01166860107332468,
                    1
                ],
                "metallicFactor" : 0,
                "roughnessFactor" : 0.18636363744735718
            }
        },
        {
            "doubleSided" : true,
            "name" : "Schnabel",
            "pbrMetallicRoughness" : {
                "baseColorFactor" : [
                    0.8000000715255737,
                    0.012122915126383305,
                    0.01735442876815796,
                    1
                ],
                "metallicFactor" : 0,
                "roughnessFactor" : 0.5
            }
        }
    ],
    "meshes" : [
        {
            "name" : "Cube",
            "primitives" : [
                {
                    "attributes" : {
                        "POSITION" : 0,
                        "NORMAL" : 1,
                        "TEXCOORD_0" : 2
                    },
                    "indices" : 3,
                    "material" : 0
                },
                {
                    "attributes" : {
                        "POSITION" : 4,
                        "NORMAL" : 5,
                        "TEXCOORD_0" : 6
                    },
                    "indices" : 7,
                    "material" : 1
                }
            ]
        }
    ],
    "accessors" : [
        {
            "bufferView" : 0,
            "componentType" : 5126,
            "count" : 1953,
            "max" : [
                0.06563686579465866,
                0.0752243846654892,
                0.08293275535106659
            ],
            "min" : [
                -0.06563686579465866,
                -0.10000000894069672,
                -0.10361694544553757
            ],
            "type" : "VEC3"
        },
        {
            "bufferView" : 1,
            "componentType" : 5126,
            "count" : 1953,
            "type" : "VEC3"
        },
        {
            "bufferView" : 2,
            "componentType" : 5126,
            "count" : 1953,
            "type" : "VEC2"
        },
        {
            "bufferView" : 3,
            "componentType" : 5123,
            "count" : 9984,
            "type" : "SCALAR"
        },
        {
            "bufferView" : 4,
            "componentType" : 5126,
            "count" : 245,
            "max" : [
                0.050412293523550034,
                0.047091562300920486,
                0.10295891761779785
            ],
            "min" : [
                -0.050412293523550034,
                0.004624761175364256,
                0.06460127979516983
            ],
            "type" : "VEC3"
        },
        {
            "bufferView" : 5,
            "componentType" : 5126,
            "count" : 245,
            "type" : "VEC3"
        },
        {
            "bufferView" : 6,
            "componentType" : 5126,
            "count" : 245,
            "type" : "VEC2"
        },
        {
            "bufferView" : 7,
            "componentType" : 5123,
            "count" : 1344,
            "type" : "SCALAR"
        }
    ],
    "bufferViews" : [
        {
            "buffer" : 0,
            "byteLength" : 23436,
            "byteOffset" : 0
        },
        {
            "buffer" : 0,
            "byteLength" : 23436,
            "byteOffset" : 23436
        },
        {
            "buffer" : 0,
            "byteLength" : 15624,
            "byteOffset" : 46872
        },
        {
            "buffer" : 0,
            "byteLength" : 19968,
            "byteOffset" : 62496
        },
        {
            "buffer" : 0,
            "byteLength" : 2940,
            "byteOffset" : 82464
        },
        {
            "buffer" : 0,
            "byteLength" : 2940,
            "byteOffset" : 85404
        },
        {
            "buffer" : 0,
            "byteLength" : 1960,
            "byteOffset" : 88344
        },
        {
            "buffer" : 0,
            "byteLength" : 2688,
            "byteOffset" : 90304
        }
    ],
    "buffers" : [
        {
            "byteLength" : 92992,
            "uri" : "duck-1.bin"
        }
    ]
}
